<svg xmlns="http://www.w3.org/2000/svg" xmlns:xlink="http://www.w3.org/1999/xlink" width="2000" zoomAndPan="magnify" viewBox="0 0 1500 525.000007" height="700" preserveAspectRatio="xMidYMid meet" version="1.0"><defs><clipPath id="65c74a7bc5"><path d="M 1.425781 0 L 1498.574219 0 L 1498.574219 524 L 1.425781 524 Z M 1.425781 0 " clip-rule="nonzero"/></clipPath><clipPath id="ae54db3ed6"><path d="M 1174 55 L 1498.574219 55 L 1498.574219 524 L 1174 524 Z M 1174 55 " clip-rule="nonzero"/></clipPath><clipPath id="7c5ad5c574"><path d="M 1313 56 L 1498.574219 56 L 1498.574219 524 L 1313 524 Z M 1313 56 " clip-rule="nonzero"/></clipPath><clipPath id="0208ac0aba"><path d="M 1.425781 0 L 327 0 L 327 477 L 1.425781 477 Z M 1.425781 0 " clip-rule="nonzero"/></clipPath><clipPath id="b2b260a2fa"><path d="M 1.425781 0 L 187 0 L 187 475 L 1.425781 475 Z M 1.425781 0 " clip-rule="nonzero"/></clipPath><clipPath id="623f961512"><path d="M 69 413 L 151 413 L 151 464.679688 L 69 464.679688 Z M 69 413 " clip-rule="nonzero"/></clipPath><clipPath id="6703e488ac"><path d="M 167 437 L 238 437 L 238 464.679688 L 167 464.679688 Z M 167 437 " clip-rule="nonzero"/></clipPath><clipPath id="401880cd39"><path d="M 1203.539062 165 L 1219 165 L 1219 181 L 1203.539062 181 Z M 1203.539062 165 " clip-rule="nonzero"/></clipPath><clipPath id="f191159053"><path d="M 1247 105.835938 L 1262 105.835938 L 1262 121 L 1247 121 Z M 1247 105.835938 " clip-rule="nonzero"/></clipPath><clipPath id="6373795be8"><path d="M 1250 170 L 1271 170 L 1271 190.425781 L 1250 190.425781 Z M 1250 170 " clip-rule="nonzero"/></clipPath><clipPath id="0b8fe7293b"><path d="M 1334 170 L 1349.511719 170 L 1349.511719 186 L 1334 186 Z M 1334 170 " clip-rule="nonzero"/></clipPath></defs><g clip-path="url(#65c74a7bc5)"><path fill="#ffffff" d="M 1.425781 0 L 1498.574219 0 L 1498.574219 524 L 1.425781 524 Z M 1.425781 0 " fill-opacity="1" fill-rule="nonzero"/><path fill="#ffffff" d="M 1.425781 0 L 1498.574219 0 L 1498.574219 524 L 1.425781 524 Z M 1.425781 0 " fill-opacity="1" fill-rule="nonzero"/></g><g clip-path="url(#ae54db3ed6)"><path fill="#545454" d="M 1568.855469 77.457031 C 1568.0625 56.210938 1555.105469 50.253906 1537.28125 59.140625 C 1510.226562 72.542969 1495.28125 101.585938 1474.234375 123.28125 C 1456.363281 141.746094 1433.574219 155.152344 1416.644531 174.511719 C 1385.617188 210.058594 1378.171875 260.695312 1351.464844 299.617188 C 1333.789062 325.382812 1308.371094 344.941406 1281.515625 361.027344 C 1215.539062 400.59375 1184.460938 412.210938 1174.828125 499.980469 C 1173.488281 512.539062 1173.042969 527.535156 1180.191406 538.652344 C 1190.121094 553.84375 1210.871094 549.375 1226.359375 547.789062 C 1325.382812 537.5625 1423.859375 523.113281 1521.792969 504.449219 C 1531.375 502.660156 1541.648438 500.527344 1548.550781 493.824219 C 1559.96875 483.050781 1564.039062 467.664062 1566.074219 306.320312 C 1567.019531 231.703125 1568.953125 79.148438 1568.855469 77.457031 Z M 1568.855469 77.457031 " fill-opacity="1" fill-rule="nonzero"/></g><g clip-path="url(#7c5ad5c574)"><path fill="#a6a6a6" d="M 1569.550781 69.515625 C 1568.953125 63.804688 1566.523438 56.460938 1560.8125 56.609375 C 1558.433594 56.957031 1556.347656 57.933594 1554.558594 59.539062 C 1535.742188 73.734375 1517.574219 90.714844 1509.878906 113.003906 C 1493.199219 161.804688 1532.21875 217.605469 1513.054688 265.511719 C 1493.890625 313.417969 1415.902344 341.46875 1382.144531 399.054688 C 1358.960938 438.769531 1356.378906 491.242188 1321.476562 521.078125 C 1319.046875 523.164062 1313.386719 527.484375 1313.882812 531.304688 C 1314.476562 536.269531 1321.824219 533.191406 1325.050781 532.597656 C 1446.332031 511.300781 1496.027344 520.1875 1555.699219 499.085938 C 1567.613281 494.867188 1569.796875 490.894531 1570.59375 479.972656 C 1577 411.707031 1580.113281 343.289062 1579.941406 274.71875 C 1579.765625 206.152344 1576.300781 137.75 1569.550781 69.515625 Z M 1569.550781 69.515625 " fill-opacity="1" fill-rule="nonzero"/></g><g clip-path="url(#0208ac0aba)"><path fill="#545454" d="M -68.621094 453.894531 C -67.828125 475.152344 -54.863281 481.113281 -37.03125 472.222656 C -9.960938 458.8125 4.988281 429.753906 26.050781 408.046875 C 43.929688 389.570312 66.730469 376.160156 83.667969 356.789062 C 114.710938 321.222656 122.164062 270.558594 148.886719 231.617188 C 166.570312 205.839844 192 186.269531 218.871094 170.175781 C 284.882812 130.585938 315.976562 118.964844 325.613281 31.144531 C 326.957031 18.578125 327.402344 3.578125 320.25 -7.546875 C 310.316406 -22.746094 289.554688 -18.277344 274.054688 -16.6875 C 174.980469 -6.453125 76.449219 8 -21.535156 26.675781 C -31.121094 28.464844 -41.402344 30.601562 -48.308594 37.304688 C -59.730469 48.085938 -63.804688 63.480469 -65.839844 224.914062 C -66.785156 299.566406 -68.722656 452.207031 -68.621094 453.894531 Z M -68.621094 453.894531 " fill-opacity="1" fill-rule="nonzero"/></g><g clip-path="url(#b2b260a2fa)"><path fill="#a6a6a6" d="M -69.316406 461.839844 C -68.722656 467.554688 -66.289062 474.90625 -60.574219 474.757812 C -58.195312 474.410156 -56.109375 473.429688 -54.316406 471.824219 C -35.492188 457.621094 -17.3125 440.632812 -9.613281 418.332031 C 7.074219 369.503906 -31.964844 313.671875 -12.792969 265.742188 C 6.378906 217.808594 84.414062 189.746094 118.1875 132.128906 C 141.386719 92.390625 143.96875 39.886719 178.886719 10.035156 C 181.320312 7.949219 186.984375 3.628906 186.488281 -0.195312 C 185.890625 -5.164062 178.539062 -2.082031 175.3125 -1.488281 C 53.964844 19.820312 4.246094 10.929688 -55.460938 32.039062 C -67.378906 36.261719 -69.566406 40.234375 -70.359375 51.164062 C -76.769531 119.46875 -79.886719 187.921875 -79.710938 256.527344 C -79.539062 325.132812 -76.074219 393.570312 -69.316406 461.839844 Z M -69.316406 461.839844 " fill-opacity="1" fill-rule="nonzero"/></g><path fill="#d9d9d9" d="M 205.046875 420.597656 C 174.660156 422.210938 156.882812 402.542969 160.605469 386.769531 C 161.273438 384.753906 162.195312 382.867188 163.375 381.105469 C 164.554688 379.34375 165.945312 377.765625 167.546875 376.378906 C 178.660156 358.546875 222.15625 361.769531 239.210938 374.214844 C 257.097656 381.15625 266.210938 393.65625 255.542969 408.378906 C 248.488281 417.988281 225.824219 421.320312 214.710938 421.320312 C 211.476562 421.257812 208.253906 421.015625 205.046875 420.597656 Z M 205.046875 420.597656 " fill-opacity="1" fill-rule="nonzero"/><g clip-path="url(#623f961512)"><path fill="#d9d9d9" d="M 80.332031 420.65625 C 86.550781 417.875 93.019531 415.914062 99.738281 414.777344 C 106.453125 413.636719 113.207031 413.355469 119.996094 413.933594 L 120.605469 413.933594 C 123.332031 414.027344 126.035156 414.324219 128.71875 414.820312 C 142.160156 416.65625 152.105469 424.433594 147.550781 433.542969 C 148.308594 434.492188 148.9375 435.523438 149.441406 436.632812 C 149.941406 437.742188 150.300781 438.894531 150.515625 440.09375 C 150.726562 441.292969 150.789062 442.496094 150.703125 443.710938 C 150.613281 444.925781 150.378906 446.109375 149.996094 447.265625 C 144.4375 463.929688 123.828125 465.375 106.886719 465.375 C 98.164062 465.152344 48.945312 436.152344 80.332031 420.65625 Z M 80.332031 420.65625 " fill-opacity="1" fill-rule="nonzero"/></g><path fill="#d9d9d9" d="M 289.207031 453.097656 Z M 247.265625 453.097656 C 246.671875 452.828125 246.101562 452.507812 245.5625 452.144531 C 245.019531 451.78125 244.511719 451.371094 244.039062 450.921875 C 243.5625 450.472656 243.128906 449.984375 242.738281 449.464844 C 242.34375 448.941406 242 448.390625 241.699219 447.808594 C 241.398438 447.226562 241.148438 446.625 240.949219 446.003906 C 240.75 445.382812 240.601562 444.75 240.507812 444.101562 C 240.414062 443.453125 240.375 442.804688 240.390625 442.152344 C 240.40625 441.5 240.476562 440.851562 240.601562 440.210938 C 243.710938 430.933594 251.710938 428.320312 261.210938 425.433594 C 263.847656 422.496094 266.863281 420.019531 270.253906 418.003906 C 273.644531 415.984375 277.257812 414.515625 281.097656 413.601562 C 295.652344 404.433594 302.929688 407.378906 317.761719 414.988281 C 326.707031 419.597656 338.703125 423.320312 338.59375 436.429688 C 338.59375 448.097656 325.59375 453.097656 313.929688 454.484375 C 302.261719 455.875 292.097656 452.152344 282.042969 453.429688 C 276.082031 455.152344 270.011719 456.207031 263.820312 456.597656 C 258.109375 456.347656 252.589844 455.183594 247.265625 453.097656 Z M 247.265625 453.097656 " fill-opacity="1" fill-rule="nonzero"/><path fill="#d9d9d9" d="M 89.332031 392.046875 C 89.167969 390.460938 89.339844 388.914062 89.84375 387.402344 C 90.347656 385.890625 91.140625 384.550781 92.21875 383.378906 C 101.832031 372.269531 136.273438 372.269531 134.273438 387.878906 C 134.574219 388.414062 134.816406 388.976562 135.003906 389.5625 C 135.1875 390.148438 135.3125 390.75 135.371094 391.359375 C 135.433594 391.972656 135.429688 392.585938 135.363281 393.195312 C 135.296875 393.808594 135.167969 394.40625 134.976562 394.992188 C 134.785156 395.574219 134.539062 396.136719 134.230469 396.667969 C 133.925781 397.203125 133.566406 397.699219 133.15625 398.15625 C 132.746094 398.613281 132.296875 399.027344 131.800781 399.390625 C 131.304688 399.757812 130.777344 400.066406 130.21875 400.324219 C 123.058594 403.089844 115.652344 404.757812 107.996094 405.324219 C 100.164062 405.324219 89.496094 397.65625 89.332031 392.046875 Z M 89.332031 392.046875 " fill-opacity="1" fill-rule="nonzero"/><g clip-path="url(#6703e488ac)"><path fill="#d9d9d9" d="M 211.101562 441.710938 L 210.324219 441.710938 Z M 200.714844 464.484375 C 186.214844 464.039062 187.160156 464.484375 181.992188 464.207031 C 181.117188 464.125 180.277344 463.914062 179.46875 463.574219 C 178.660156 463.234375 177.921875 462.78125 177.25 462.214844 C 176.582031 461.648438 176.011719 460.996094 175.539062 460.253906 C 175.070312 459.515625 174.722656 458.722656 174.492188 457.875 C 173.566406 457.726562 172.6875 457.433594 171.851562 457.003906 C 171.019531 456.574219 170.269531 456.023438 169.613281 455.355469 C 168.953125 454.6875 168.414062 453.929688 167.996094 453.089844 C 167.578125 452.25 167.300781 451.367188 167.164062 450.4375 C 167.03125 449.507812 167.039062 448.582031 167.199219 447.65625 C 167.359375 446.730469 167.660156 445.855469 168.097656 445.023438 C 168.535156 444.195312 169.09375 443.453125 169.769531 442.800781 C 170.445312 442.148438 171.203125 441.617188 172.046875 441.210938 C 187.878906 435.652344 189.269531 435.652344 228.210938 445.707031 C 228.578125 445.757812 228.9375 445.824219 229.296875 445.914062 C 229.652344 446 230.003906 446.109375 230.351562 446.234375 C 230.699219 446.359375 231.035156 446.503906 231.367188 446.667969 C 231.699219 446.828125 232.019531 447.007812 232.332031 447.207031 C 232.640625 447.402344 232.941406 447.617188 233.230469 447.84375 C 233.515625 448.074219 233.792969 448.320312 234.054688 448.578125 C 234.316406 448.835938 234.5625 449.109375 234.796875 449.394531 C 235.027344 449.683594 235.242188 449.980469 235.445312 450.289062 C 235.644531 450.597656 235.828125 450.917969 235.992188 451.246094 C 236.15625 451.574219 236.304688 451.914062 236.433594 452.257812 C 236.5625 452.601562 236.671875 452.953125 236.765625 453.3125 C 236.855469 453.667969 236.925781 454.027344 236.980469 454.394531 C 237.03125 454.757812 237.0625 455.125 237.078125 455.492188 C 237.089844 455.859375 237.082031 456.230469 237.054688 456.597656 C 237.027344 456.964844 236.980469 457.328125 236.914062 457.691406 C 236.847656 458.054688 236.761719 458.410156 236.65625 458.761719 C 233.101562 465.320312 229.210938 465.429688 221.488281 465.429688 C 216.15625 465.375 217.546875 464.820312 200.714844 464.320312 Z M 200.714844 464.484375 " fill-opacity="1" fill-rule="nonzero"/></g><path fill="#a6a6a6" d="M 1335.59375 137.675781 C 1335.59375 141.777344 1332.265625 145.101562 1328.167969 145.101562 C 1324.0625 145.101562 1320.742188 141.777344 1320.742188 137.675781 C 1320.742188 133.570312 1324.0625 130.246094 1328.167969 130.246094 C 1332.265625 130.246094 1335.59375 133.570312 1335.59375 137.675781 " fill-opacity="1" fill-rule="nonzero"/><g clip-path="url(#401880cd39)"><path fill="#a6a6a6" d="M 1218.417969 172.914062 C 1218.417969 177.015625 1215.09375 180.339844 1210.988281 180.339844 C 1206.886719 180.339844 1203.5625 177.015625 1203.5625 172.914062 C 1203.5625 168.8125 1206.886719 165.488281 1210.988281 165.488281 C 1215.09375 165.488281 1218.417969 168.8125 1218.417969 172.914062 " fill-opacity="1" fill-rule="nonzero"/></g><g clip-path="url(#f191159053)"><path fill="#a6a6a6" d="M 1261.980469 113.261719 C 1261.980469 117.363281 1258.652344 120.691406 1254.554688 120.691406 C 1250.449219 120.691406 1247.125 117.363281 1247.125 113.261719 C 1247.125 109.160156 1250.449219 105.835938 1254.554688 105.835938 C 1258.652344 105.835938 1261.980469 109.160156 1261.980469 113.261719 " fill-opacity="1" fill-rule="nonzero"/></g><path fill="#a6a6a6" d="M 1292.019531 162.898438 C 1292.019531 167.003906 1288.695312 170.328125 1284.589844 170.328125 C 1280.488281 170.328125 1277.164062 167.003906 1277.164062 162.898438 C 1277.164062 158.796875 1280.488281 155.472656 1284.589844 155.472656 C 1288.695312 155.472656 1292.019531 158.796875 1292.019531 162.898438 " fill-opacity="1" fill-rule="nonzero"/><g clip-path="url(#6373795be8)"><path fill="#a6a6a6" d="M 1270.183594 180.339844 C 1270.183594 185.871094 1265.703125 190.355469 1260.175781 190.355469 C 1254.640625 190.355469 1250.160156 185.871094 1250.160156 180.339844 C 1250.160156 174.8125 1254.640625 170.328125 1260.175781 170.328125 C 1265.703125 170.328125 1270.183594 174.8125 1270.183594 180.339844 " fill-opacity="1" fill-rule="nonzero"/></g><path fill="#a6a6a6" d="M 1294.605469 137.675781 C 1294.605469 143.207031 1290.121094 147.6875 1284.589844 147.6875 C 1279.058594 147.6875 1274.578125 143.207031 1274.578125 137.675781 C 1274.578125 132.144531 1279.058594 127.660156 1284.589844 127.660156 C 1290.121094 127.660156 1294.605469 132.144531 1294.605469 137.675781 " fill-opacity="1" fill-rule="nonzero"/><path fill="#a6a6a6" d="M 1321.738281 170.328125 C 1321.570312 175.242188 1317.859375 178.949219 1312.945312 179.117188 C 1308.035156 179.28125 1304.3125 174.992188 1304.15625 170.328125 C 1303.988281 165.417969 1308.28125 161.695312 1312.945312 161.539062 C 1317.855469 161.371094 1321.578125 165.664062 1321.738281 170.328125 C 1321.789062 171.898438 1324.234375 171.90625 1324.183594 170.328125 C 1323.96875 164.058594 1319.214844 159.300781 1312.945312 159.09375 C 1306.679688 158.882812 1301.910156 164.375 1301.710938 170.328125 C 1301.5 176.59375 1306.992188 181.363281 1312.945312 181.5625 C 1319.210938 181.777344 1323.980469 176.277344 1324.183594 170.328125 C 1324.234375 168.75 1321.789062 168.753906 1321.738281 170.328125 " fill-opacity="1" fill-rule="nonzero"/><path fill="#a6a6a6" d="M 1246.070312 160.316406 C 1245.902344 165.226562 1242.191406 168.941406 1237.28125 169.105469 C 1232.367188 169.269531 1228.644531 164.976562 1228.488281 160.316406 C 1228.320312 155.402344 1232.613281 151.683594 1237.28125 151.527344 C 1242.191406 151.359375 1245.910156 155.648438 1246.070312 160.316406 C 1246.121094 161.886719 1248.566406 161.894531 1248.515625 160.316406 C 1248.304688 154.046875 1243.546875 149.289062 1237.28125 149.082031 C 1231.011719 148.867188 1226.242188 154.363281 1226.042969 160.316406 C 1225.832031 166.582031 1231.328125 171.351562 1237.28125 171.554688 C 1243.542969 171.761719 1248.3125 166.269531 1248.515625 160.316406 C 1248.566406 158.738281 1246.121094 158.738281 1246.070312 160.316406 " fill-opacity="1" fill-rule="nonzero"/><g clip-path="url(#0b8fe7293b)"><path fill="#a6a6a6" d="M 1349.699219 178.058594 C 1349.699219 182.332031 1346.238281 185.789062 1341.96875 185.789062 C 1337.695312 185.789062 1334.238281 182.332031 1334.238281 178.058594 C 1334.238281 173.789062 1337.695312 170.328125 1341.96875 170.328125 C 1346.238281 170.328125 1349.699219 173.789062 1349.699219 178.058594 " fill-opacity="1" fill-rule="nonzero"/></g></svg>