<svg xmlns="http://www.w3.org/2000/svg" version="1.1" xmlns:xlink="http://www.w3.org/1999/xlink" xmlns:svgjs="http://svgjs.dev/svgjs" width="1440" height="560" preserveAspectRatio="none" viewBox="0 0 1440 560"><g mask="url(&quot;#SvgjsMask1178&quot;)" fill="none"><rect width="1440" height="560" x="0" y="0" fill="rgba(10, 144, 255, 0.07)"></rect><use xlink:href="#SvgjsSymbol1185" x="0" y="0"></use><use xlink:href="#SvgjsSymbol1185" x="720" y="0"></use></g><defs><mask id="SvgjsMask1178"><rect width="1440" height="560" fill="#ffffff"></rect></mask><path d="M-1 0 a1 1 0 1 0 2 0 a1 1 0 1 0 -2 0z" id="SvgjsPath1181"></path><path d="M-3 0 a3 3 0 1 0 6 0 a3 3 0 1 0 -6 0z" id="SvgjsPath1183"></path><path d="M-5 0 a5 5 0 1 0 10 0 a5 5 0 1 0 -10 0z" id="SvgjsPath1179"></path><path d="M2 -2 L-2 2z" id="SvgjsPath1180"></path><path d="M6 -6 L-6 6z" id="SvgjsPath1182"></path><path d="M30 -30 L-30 30z" id="SvgjsPath1184"></path></defs><symbol id="SvgjsSymbol1185"><use xlink:href="#SvgjsPath1179" x="30" y="30" stroke="rgba(102, 229, 255, 0.24)"></use><use xlink:href="#SvgjsPath1179" x="30" y="90" stroke="rgba(102, 229, 255, 0.24)"></use><use xlink:href="#SvgjsPath1179" x="30" y="150" stroke="rgba(102, 229, 255, 0.24)"></use><use xlink:href="#SvgjsPath1180" x="30" y="210" stroke="rgba(102, 229, 255, 0.24)"></use><use xlink:href="#SvgjsPath1180" x="30" y="270" stroke="rgba(102, 229, 255, 0.24)"></use><use xlink:href="#SvgjsPath1180" x="30" y="330" stroke="rgba(102, 229, 255, 0.24)"></use><use xlink:href="#SvgjsPath1180" x="30" y="390" stroke="rgba(102, 229, 255, 0.24)"></use><use xlink:href="#SvgjsPath1179" x="30" y="450" stroke="rgba(102, 229, 255, 0.24)"></use><use xlink:href="#SvgjsPath1181" x="30" y="510" stroke="rgba(102, 229, 255, 0.24)"></use><use xlink:href="#SvgjsPath1182" x="30" y="570" stroke="rgba(102, 229, 255, 0.24)"></use><use xlink:href="#SvgjsPath1182" x="90" y="30" stroke="rgba(102, 229, 255, 0.24)"></use><use xlink:href="#SvgjsPath1180" x="90" y="90" stroke="rgba(102, 229, 255, 0.24)"></use><use xlink:href="#SvgjsPath1179" x="90" y="150" stroke="rgba(102, 229, 255, 0.24)"></use><use xlink:href="#SvgjsPath1180" x="90" y="210" stroke="rgba(102, 229, 255, 0.24)"></use><use xlink:href="#SvgjsPath1183" x="90" y="270" stroke="rgba(102, 229, 255, 0.24)"></use><use xlink:href="#SvgjsPath1179" x="90" y="330" stroke="rgba(102, 229, 255, 0.24)"></use><use xlink:href="#SvgjsPath1179" x="90" y="390" stroke="rgba(102, 229, 255, 0.24)"></use><use xlink:href="#SvgjsPath1182" x="90" y="450" stroke="rgba(102, 229, 255, 0.24)"></use><use xlink:href="#SvgjsPath1182" x="90" y="510" stroke="rgba(102, 229, 255, 0.24)"></use><use xlink:href="#SvgjsPath1179" x="90" y="570" stroke="rgba(102, 229, 255, 0.24)"></use><use xlink:href="#SvgjsPath1182" x="150" y="30" stroke="rgba(102, 229, 255, 0.24)"></use><use xlink:href="#SvgjsPath1179" x="150" y="90" stroke="rgba(102, 229, 255, 0.24)"></use><use xlink:href="#SvgjsPath1179" x="150" y="150" stroke="rgba(102, 229, 255, 0.24)"></use><use xlink:href="#SvgjsPath1180" x="150" y="210" stroke="rgba(102, 229, 255, 0.24)"></use><use xlink:href="#SvgjsPath1181" x="150" y="270" stroke="rgba(102, 229, 255, 0.24)"></use><use xlink:href="#SvgjsPath1179" x="150" y="330" stroke="rgba(102, 229, 255, 0.24)"></use><use xlink:href="#SvgjsPath1182" x="150" y="390" stroke="rgba(102, 229, 255, 0.24)"></use><use xlink:href="#SvgjsPath1180" x="150" y="450" stroke="rgba(102, 229, 255, 0.24)"></use><use xlink:href="#SvgjsPath1182" x="150" y="510" stroke="rgba(102, 229, 255, 0.24)"></use><use xlink:href="#SvgjsPath1181" x="150" y="570" stroke="rgba(102, 229, 255, 0.24)"></use><use xlink:href="#SvgjsPath1180" x="210" y="30" stroke="rgba(102, 229, 255, 0.24)"></use><use xlink:href="#SvgjsPath1183" x="210" y="90" stroke="rgba(102, 229, 255, 0.24)"></use><use xlink:href="#SvgjsPath1183" x="210" y="150" stroke="rgba(102, 229, 255, 0.24)"></use><use xlink:href="#SvgjsPath1179" x="210" y="210" stroke="rgba(102, 229, 255, 0.24)"></use><use xlink:href="#SvgjsPath1183" x="210" y="270" stroke="rgba(102, 229, 255, 0.24)"></use><use xlink:href="#SvgjsPath1179" x="210" y="330" stroke="rgba(102, 229, 255, 0.24)"></use><use xlink:href="#SvgjsPath1182" x="210" y="390" stroke="rgba(102, 229, 255, 0.24)"></use><use xlink:href="#SvgjsPath1179" x="210" y="450" stroke="rgba(102, 229, 255, 0.24)"></use><use xlink:href="#SvgjsPath1179" x="210" y="510" stroke="rgba(102, 229, 255, 0.24)"></use><use xlink:href="#SvgjsPath1182" x="210" y="570" stroke="rgba(102, 229, 255, 0.24)"></use><use xlink:href="#SvgjsPath1181" x="270" y="30" stroke="rgba(102, 229, 255, 0.24)"></use><use xlink:href="#SvgjsPath1184" x="270" y="90" stroke="rgba(102, 229, 255, 0.24)" stroke-width="3"></use><use xlink:href="#SvgjsPath1179" x="270" y="150" stroke="rgba(102, 229, 255, 0.24)"></use><use xlink:href="#SvgjsPath1179" x="270" y="210" stroke="rgba(102, 229, 255, 0.24)"></use><use xlink:href="#SvgjsPath1181" x="270" y="270" stroke="rgba(102, 229, 255, 0.24)"></use><use xlink:href="#SvgjsPath1179" x="270" y="330" stroke="rgba(102, 229, 255, 0.24)"></use><use xlink:href="#SvgjsPath1179" x="270" y="390" stroke="rgba(102, 229, 255, 0.24)"></use><use xlink:href="#SvgjsPath1182" x="270" y="450" stroke="rgba(102, 229, 255, 0.24)"></use><use xlink:href="#SvgjsPath1183" x="270" y="510" stroke="rgba(102, 229, 255, 0.24)"></use><use xlink:href="#SvgjsPath1183" x="270" y="570" stroke="rgba(102, 229, 255, 0.24)"></use><use xlink:href="#SvgjsPath1182" x="330" y="30" stroke="rgba(102, 229, 255, 0.24)"></use><use xlink:href="#SvgjsPath1182" x="330" y="90" stroke="rgba(102, 229, 255, 0.24)"></use><use xlink:href="#SvgjsPath1180" x="330" y="150" stroke="rgba(102, 229, 255, 0.24)"></use><use xlink:href="#SvgjsPath1181" x="330" y="210" stroke="rgba(102, 229, 255, 0.24)"></use><use xlink:href="#SvgjsPath1184" x="330" y="270" stroke="rgba(102, 229, 255, 0.24)" stroke-width="3"></use><use xlink:href="#SvgjsPath1181" x="330" y="330" stroke="rgba(102, 229, 255, 0.24)"></use><use xlink:href="#SvgjsPath1179" x="330" y="390" stroke="rgba(102, 229, 255, 0.24)"></use><use xlink:href="#SvgjsPath1182" x="330" y="450" stroke="rgba(102, 229, 255, 0.24)"></use><use xlink:href="#SvgjsPath1182" x="330" y="510" stroke="rgba(102, 229, 255, 0.24)"></use><use xlink:href="#SvgjsPath1182" x="330" y="570" stroke="rgba(102, 229, 255, 0.24)"></use><use xlink:href="#SvgjsPath1180" x="390" y="30" stroke="rgba(102, 229, 255, 0.24)"></use><use xlink:href="#SvgjsPath1182" x="390" y="90" stroke="rgba(102, 229, 255, 0.24)"></use><use xlink:href="#SvgjsPath1180" x="390" y="150" stroke="rgba(102, 229, 255, 0.24)"></use><use xlink:href="#SvgjsPath1184" x="390" y="210" stroke="rgba(102, 229, 255, 0.24)" stroke-width="3"></use><use xlink:href="#SvgjsPath1182" x="390" y="270" stroke="rgba(102, 229, 255, 0.24)"></use><use xlink:href="#SvgjsPath1179" x="390" y="330" stroke="rgba(102, 229, 255, 0.24)"></use><use xlink:href="#SvgjsPath1182" x="390" y="390" stroke="rgba(102, 229, 255, 0.24)"></use><use xlink:href="#SvgjsPath1183" x="390" y="450" stroke="rgba(102, 229, 255, 0.24)"></use><use xlink:href="#SvgjsPath1182" x="390" y="510" stroke="rgba(102, 229, 255, 0.24)"></use><use xlink:href="#SvgjsPath1180" x="390" y="570" stroke="rgba(102, 229, 255, 0.24)"></use><use xlink:href="#SvgjsPath1182" x="450" y="30" stroke="rgba(102, 229, 255, 0.24)"></use><use xlink:href="#SvgjsPath1182" x="450" y="90" stroke="rgba(102, 229, 255, 0.24)"></use><use xlink:href="#SvgjsPath1181" x="450" y="150" stroke="rgba(102, 229, 255, 0.24)"></use><use xlink:href="#SvgjsPath1182" x="450" y="210" stroke="rgba(102, 229, 255, 0.24)"></use><use xlink:href="#SvgjsPath1182" x="450" y="270" stroke="rgba(102, 229, 255, 0.24)"></use><use xlink:href="#SvgjsPath1183" x="450" y="330" stroke="rgba(102, 229, 255, 0.24)"></use><use xlink:href="#SvgjsPath1180" x="450" y="390" stroke="rgba(102, 229, 255, 0.24)"></use><use xlink:href="#SvgjsPath1179" x="450" y="450" stroke="rgba(102, 229, 255, 0.24)"></use><use xlink:href="#SvgjsPath1182" x="450" y="510" stroke="rgba(102, 229, 255, 0.24)"></use><use xlink:href="#SvgjsPath1182" x="450" y="570" stroke="rgba(102, 229, 255, 0.24)"></use><use xlink:href="#SvgjsPath1182" x="510" y="30" stroke="rgba(102, 229, 255, 0.24)"></use><use xlink:href="#SvgjsPath1183" x="510" y="90" stroke="rgba(102, 229, 255, 0.24)"></use><use xlink:href="#SvgjsPath1181" x="510" y="150" stroke="rgba(102, 229, 255, 0.24)"></use><use xlink:href="#SvgjsPath1182" x="510" y="210" stroke="rgba(102, 229, 255, 0.24)"></use><use xlink:href="#SvgjsPath1183" x="510" y="270" stroke="rgba(102, 229, 255, 0.24)"></use><use xlink:href="#SvgjsPath1179" x="510" y="330" stroke="rgba(102, 229, 255, 0.24)"></use><use xlink:href="#SvgjsPath1180" x="510" y="390" stroke="rgba(102, 229, 255, 0.24)"></use><use xlink:href="#SvgjsPath1179" x="510" y="450" stroke="rgba(102, 229, 255, 0.24)"></use><use xlink:href="#SvgjsPath1182" x="510" y="510" stroke="rgba(102, 229, 255, 0.24)"></use><use xlink:href="#SvgjsPath1179" x="510" y="570" stroke="rgba(102, 229, 255, 0.24)"></use><use xlink:href="#SvgjsPath1181" x="570" y="30" stroke="rgba(102, 229, 255, 0.24)"></use><use xlink:href="#SvgjsPath1182" x="570" y="90" stroke="rgba(102, 229, 255, 0.24)"></use><use xlink:href="#SvgjsPath1179" x="570" y="150" stroke="rgba(102, 229, 255, 0.24)"></use><use xlink:href="#SvgjsPath1179" x="570" y="210" stroke="rgba(102, 229, 255, 0.24)"></use><use xlink:href="#SvgjsPath1180" x="570" y="270" stroke="rgba(102, 229, 255, 0.24)"></use><use xlink:href="#SvgjsPath1182" x="570" y="330" stroke="rgba(102, 229, 255, 0.24)"></use><use xlink:href="#SvgjsPath1182" x="570" y="390" stroke="rgba(102, 229, 255, 0.24)"></use><use xlink:href="#SvgjsPath1179" x="570" y="450" stroke="rgba(102, 229, 255, 0.24)"></use><use xlink:href="#SvgjsPath1184" x="570" y="510" stroke="rgba(102, 229, 255, 0.24)" stroke-width="3"></use><use xlink:href="#SvgjsPath1182" x="570" y="570" stroke="rgba(102, 229, 255, 0.24)"></use><use xlink:href="#SvgjsPath1182" x="630" y="30" stroke="rgba(102, 229, 255, 0.24)"></use><use xlink:href="#SvgjsPath1184" x="630" y="90" stroke="rgba(102, 229, 255, 0.24)" stroke-width="3"></use><use xlink:href="#SvgjsPath1180" x="630" y="150" stroke="rgba(102, 229, 255, 0.24)"></use><use xlink:href="#SvgjsPath1179" x="630" y="210" stroke="rgba(102, 229, 255, 0.24)"></use><use xlink:href="#SvgjsPath1181" x="630" y="270" stroke="rgba(102, 229, 255, 0.24)"></use><use xlink:href="#SvgjsPath1182" x="630" y="330" stroke="rgba(102, 229, 255, 0.24)"></use><use xlink:href="#SvgjsPath1182" x="630" y="390" stroke="rgba(102, 229, 255, 0.24)"></use><use xlink:href="#SvgjsPath1179" x="630" y="450" stroke="rgba(102, 229, 255, 0.24)"></use><use xlink:href="#SvgjsPath1179" x="630" y="510" stroke="rgba(102, 229, 255, 0.24)"></use><use xlink:href="#SvgjsPath1180" x="630" y="570" stroke="rgba(102, 229, 255, 0.24)"></use><use xlink:href="#SvgjsPath1179" x="690" y="30" stroke="rgba(102, 229, 255, 0.24)"></use><use xlink:href="#SvgjsPath1181" x="690" y="90" stroke="rgba(102, 229, 255, 0.24)"></use><use xlink:href="#SvgjsPath1179" x="690" y="150" stroke="rgba(102, 229, 255, 0.24)"></use><use xlink:href="#SvgjsPath1182" x="690" y="210" stroke="rgba(102, 229, 255, 0.24)"></use><use xlink:href="#SvgjsPath1181" x="690" y="270" stroke="rgba(102, 229, 255, 0.24)"></use><use xlink:href="#SvgjsPath1179" x="690" y="330" stroke="rgba(102, 229, 255, 0.24)"></use><use xlink:href="#SvgjsPath1179" x="690" y="390" stroke="rgba(102, 229, 255, 0.24)"></use><use xlink:href="#SvgjsPath1179" x="690" y="450" stroke="rgba(102, 229, 255, 0.24)"></use><use xlink:href="#SvgjsPath1183" x="690" y="510" stroke="rgba(102, 229, 255, 0.24)"></use><use xlink:href="#SvgjsPath1182" x="690" y="570" stroke="rgba(102, 229, 255, 0.24)"></use></symbol></svg>