<svg xmlns="http://www.w3.org/2000/svg" xmlns:xlink="http://www.w3.org/1999/xlink" width="1600" zoomAndPan="magnify" viewBox="0 0 1200 374.999991" height="500" preserveAspectRatio="xMidYMid meet" version="1.0"><defs><g/></defs><rect x="-120" width="1440" fill="#ffffff" y="-37.499999" height="449.999989" fill-opacity="1"/><rect x="-120" width="1440" fill="#000000" y="-37.499999" height="449.999989" fill-opacity="1"/><path fill="#4a97d2" d="M 955.964844 357.628906 C 966.238281 361.707031 973.039062 370.355469 981.089844 377.230469 C 1007.46875 399.757812 1031.496094 424.585938 1052.464844 452.316406 C 1042.527344 464.496094 1028.359375 470.84375 1014.449219 475.394531 C 998.476562 480.644531 995.390625 492.09375 993.273438 505.5 C 991.234375 518.4375 997.480469 528.082031 1007.703125 534.144531 C 1020.148438 541.515625 1032.515625 548.441406 1043.234375 558.527344 C 1050.710938 565.558594 1061.066406 566.917969 1071.785156 564.722656 C 1089.089844 561.195312 1106.632812 561.585938 1124.125 563.753906 C 1132.464844 572.746094 1135.550781 584.558594 1140.203125 595.351562 C 1148.125 613.648438 1157.171875 631.628906 1160.9375 651.492188 C 1157.40625 653.398438 1154.820312 651.335938 1152.621094 649.113281 C 1130.894531 627.238281 1103.863281 620.390625 1074.136719 621.855469 C 1064.175781 622.351562 1055.390625 620.234375 1046.945312 615.085938 C 1015.390625 595.796875 979.9375 588.140625 944.253906 581.917969 C 926.210938 578.78125 909.925781 584.691406 898.550781 599.613281 C 885.664062 616.523438 870.105469 630.191406 852.957031 642.5 C 844.042969 648.902344 836.484375 657.058594 837.113281 669.210938 C 837.976562 685.910156 859.335938 698.664062 876.25 689.308594 C 908.277344 671.589844 942.003906 679.558594 975.179688 678.226562 C 982.265625 677.941406 988.800781 680.972656 994.945312 684.550781 C 999.339844 687.113281 1003.546875 690.929688 1008.4375 691.476562 C 1052.464844 696.390625 1081.667969 727.597656 1114.347656 751.953125 C 1135.339844 767.609375 1156.9375 781.746094 1179.941406 793.953125 C 1184.570312 796.410156 1188.386719 799.492188 1191.316406 803.804688 C 1197.09375 835.636719 1195.605469 867.496094 1191.265625 899.328125 C 1187.890625 901.183594 1184.542969 900.035156 1182.765625 897.5 C 1166.007812 873.691406 1139.394531 869.429688 1114.113281 864.726562 C 1089.089844 860.074219 1074.527344 847.292969 1068.070312 823.066406 C 1060.464844 794.5 1033.585938 789.011719 1011.261719 780.519531 C 993.925781 773.933594 979.441406 766.5625 968.539062 751.039062 C 953.375 729.425781 930.632812 727.621094 906.945312 731.855469 C 898.1875 733.425781 889.742188 736.195312 880.644531 734.363281 C 843.882812 726.917969 813.636719 741.265625 786.132812 763.53125 C 771.28125 775.554688 766.96875 790.894531 767.125 810.601562 C 767.464844 847.738281 774.652344 881.921875 793.84375 913.914062 C 800.980469 925.832031 802.183594 940.492188 807.804688 953.402344 C 815.179688 970.339844 827.230469 980.660156 844.902344 986.28125 C 863.257812 992.109375 882.210938 993.992188 900.90625 997.542969 C 919.859375 1001.152344 923.257812 1006.117188 921.273438 1026.660156 C 918.238281 1057.785156 907.363281 1087.242188 901.898438 1117.898438 C 898.550781 1136.6875 894.605469 1155.21875 895.074219 1174.503906 C 895.519531 1193.53125 901.949219 1209.996094 916.671875 1221.367188 C 930.34375 1231.925781 932.171875 1243.371094 925.714844 1257.929688 C 924.433594 1260.828125 923.652344 1263.9375 922.605469 1266.945312 C 912.015625 1297.027344 912.722656 1299.667969 936.460938 1321.097656 C 944.042969 1327.945312 952.253906 1334.609375 948.332031 1346.8125 C 945.167969 1349.871094 942.292969 1353.347656 938.761719 1355.933594 C 859.542969 1413.773438 772.039062 1452.347656 675.226562 1469.464844 C 637.605469 1476.128906 599.75 1480.078125 561.628906 1479.554688 C 503.667969 1478.769531 446.675781 1470.824219 390.75 1454.75 C 316.605469 1433.453125 248.917969 1399.421875 187.140625 1353.609375 C 122.066406 1305.363281 68.914062 1246.0625 26.824219 1176.832031 C -6.773438 1121.582031 -30.851562 1062.332031 -46.277344 999.636719 C -53.257812 971.277344 -57.726562 942.503906 -60.96875 913.417969 C -64.890625 879.257812 -65.152344 844.96875 -63.113281 810.757812 C -60.394531 765.074219 -52.527344 720.042969 -39.636719 676.003906 C -22.589844 617.699219 2.300781 562.945312 35.214844 511.902344 C 44.863281 496.953125 54.5625 482.03125 66.71875 468.9375 C 87.6875 486.03125 97.726562 510.363281 105.414062 534.589844 C 113.492188 560.097656 119.058594 585.917969 137.28125 606.957031 C 144.210938 614.929688 143.816406 626.140625 143.136719 636.332031 C 141.726562 657.839844 148.890625 675.875 162.09375 692.679688 C 189.464844 727.492188 224.890625 753.46875 258.070312 781.90625 C 265.285156 788.097656 273.285156 793.351562 279.769531 800.460938 C 291.21875 812.980469 292.136719 826.074219 287.375 842.667969 C 275.769531 882.996094 272.527344 924.261719 294.957031 962.183594 C 316.371094 998.382812 315.558594 1036.773438 308.371094 1075.085938 C 297.414062 1133.628906 294.121094 1192.382812 296.054688 1251.65625 C 296.394531 1262.320312 294.539062 1277.425781 304.789062 1280.980469 C 316.34375 1284.976562 321.730469 1269.769531 327.246094 1261.613281 C 351.0625 1226.382812 382.59375 1199.28125 415.144531 1172.859375 C 437.914062 1154.382812 461.132812 1136.742188 487.039062 1122.835938 C 494.464844 1118.835938 501.132812 1113.585938 504.21875 1105.5625 C 515.773438 1075.375 539.695312 1056.792969 565.132812 1039.570312 C 572.007812 1034.917969 578.648438 1030.1875 584.089844 1023.757812 C 614.101562 988.242188 609.632812 962.996094 577.371094 929.722656 C 541.160156 892.378906 497.238281 867.8125 453.445312 842.304688 C 439.535156 834.199219 422.933594 833.941406 407.824219 829.128906 C 393.914062 824.6875 379.484375 821.917969 365.339844 818.234375 C 358.542969 816.457031 351.167969 815.042969 346.203125 810.078125 C 323.296875 787.234375 295.113281 766.773438 282.304688 737.789062 C 267.847656 705.042969 253.414062 670.203125 255.507812 632.253906 C 257.230469 600.867188 266.511719 590.753906 297.886719 586.9375 C 313.335938 585.054688 328.238281 587.121094 342.90625 592.347656 C 358.488281 597.914062 374.203125 603.035156 389.964844 608.027344 C 415.929688 616.234375 437 611.058594 445.523438 586.414062 C 458.753906 548.207031 490.125 530.929688 519.382812 510.074219 C 525.210938 505.917969 531.511719 503.277344 538.625 502.285156 C 566.257812 498.390625 590.414062 485.453125 614.9375 473.25 C 627.121094 467.1875 630.597656 459.164062 622.703125 447.296875 C 613.003906 432.765625 608.429688 416.25 604.035156 399.574219 C 599.410156 381.960938 595.828125 380.390625 580.480469 389.121094 C 572.507812 393.667969 564.453125 395.941406 555.328125 396.699219 C 531.460938 398.738281 510.152344 408.539062 489 419.230469 C 457.445312 435.171875 439.117188 426.574219 428.894531 392.257812 C 417.574219 354.308594 422.097656 319.3125 448.164062 288.292969 C 459.613281 274.648438 473 268.976562 491.746094 271.070312 C 520.085938 274.207031 548.503906 277.8125 577.210938 277.105469 C 588.664062 276.820312 596.324219 273.210938 600.375 261.582031 C 606.285156 244.59375 618.574219 232.859375 634.496094 224.808594 C 656.246094 224.078125 677.082031 230.0625 698.101562 234.113281 C 711.070312 236.597656 724.195312 239.160156 736.484375 244.515625 C 745.476562 251.652344 741.1875 262.261719 743.410156 271.171875 C 754.757812 316.859375 756.535156 364.1875 767.4375 409.925781 C 769.582031 418.941406 767.175781 427.644531 766.050781 436.425781 C 764.195312 451.035156 770.261719 459.425781 784.824219 462.089844 C 794.367188 463.839844 804.015625 464.992188 813.007812 461.097656 C 844.066406 447.691406 879.285156 440.816406 898.054688 407.703125 C 899.910156 404.4375 903.257812 401.824219 906.789062 400.488281 C 924.332031 393.824219 936.355469 381.28125 945.636719 365.496094 C 947.886719 361.601562 951.234375 358.570312 955.964844 357.628906 Z M 955.964844 357.628906 " fill-opacity="1" fill-rule="nonzero"/><path fill="#64bc46" d="M 634.441406 224.757812 C 628.480469 231.34375 622.574219 237.957031 616.585938 244.488281 C 610.46875 251.128906 605.945312 258.316406 604.140625 267.566406 C 601.839844 279.355469 597.683594 282.464844 585.683594 282.253906 C 569.1875 281.941406 552.664062 280.921875 536.191406 280.035156 C 519.09375 279.117188 501.917969 279.222656 484.976562 275.589844 C 475.824219 273.628906 467.511719 276.402344 460.609375 283.351562 C 452.949219 291.035156 445.734375 298.929688 440.035156 308.285156 C 428.269531 327.652344 424.242188 348.402344 428.765625 370.539062 C 431.039062 381.726562 433.914062 392.882812 437.628906 403.652344 C 443.953125 421.972656 459.457031 428.035156 477.183594 419.804688 C 485.839844 415.804688 494.988281 412.460938 502.753906 407.101562 C 517.421875 396.960938 535.199219 396.726562 550.964844 390.296875 C 553.027344 389.460938 556.375 389.566406 558.230469 390.714844 C 564.347656 394.480469 568.742188 392.597656 573.449219 388.074219 C 578.46875 383.242188 583.878906 378.746094 590.730469 376.496094 C 596.191406 374.71875 601.238281 376.339844 603.566406 381.386719 C 605.421875 385.382812 606.652344 389.722656 607.878906 393.957031 C 610.546875 403.101562 612.847656 412.355469 615.722656 421.449219 C 618.207031 429.289062 620.664062 437.210938 626.597656 443.457031 C 628.714844 445.675781 630.335938 448.628906 631.4375 451.558594 C 637.316406 467.109375 632.296875 471.628906 621.554688 475.445312 C 616.796875 477.117188 612.246094 479.523438 607.855469 482.003906 C 585.550781 494.574219 562.390625 504.585938 536.585938 507.121094 C 532.714844 507.511719 529.183594 508.507812 525.945312 510.804688 C 511.460938 521.128906 497 531.480469 482.359375 541.566406 C 470.414062 549.800781 461.941406 560.304688 457.890625 574.472656 C 454.675781 585.683594 447.902344 594.777344 440.035156 603.375 C 427.875 616.679688 412.84375 619.476562 396.660156 615.164062 C 379.507812 610.617188 362.4375 605.207031 346.097656 598.332031 C 323.769531 588.949219 301.625 589.289062 278.984375 595.613281 C 270.410156 598.019531 264.894531 602.59375 263.53125 612.550781 C 262.253906 621.957031 259.871094 631.183594 259.691406 640.800781 C 259.429688 654.3125 260.605469 667.25 268.632812 679.011719 C 274.828125 688.105469 277.753906 698.976562 277.3125 709.824219 C 276.632812 725.921875 284.03125 738.3125 294.253906 748.792969 C 309.363281 764.289062 324.421875 779.734375 337.964844 796.644531 C 345 805.425781 353.886719 810.445312 365.023438 813.03125 C 386.019531 817.894531 406.699219 824.007812 427.5625 829.445312 C 431.222656 830.386719 435.066406 830.804688 438.855469 831.089844 C 445.394531 831.585938 451.5625 833.363281 456.503906 837.519531 C 472.296875 850.746094 491.222656 858.558594 509.210938 867.863281 C 524.742188 875.886719 538.230469 886.105469 550.074219 898.648438 C 559.25 908.371094 568.714844 917.753906 579.382812 925.882812 C 589.109375 933.304688 596.558594 942.84375 603.515625 952.722656 C 611.671875 964.328125 613.816406 976.585938 608.714844 990.566406 C 600.402344 1013.433594 588.191406 1032.800781 566.050781 1044.40625 C 556.898438 1049.214844 549.449219 1055.984375 542.363281 1063.378906 C 534.910156 1071.167969 527.226562 1078.796875 519.121094 1085.933594 C 515.066406 1089.488281 512.242188 1092.988281 511.746094 1098.53125 C 510.414062 1113.453125 501.082031 1122.339844 488.347656 1128.585938 C 467.746094 1138.699219 449.339844 1151.925781 431.5625 1166.507812 C 417.890625 1177.71875 405.445312 1190.683594 389.46875 1199.074219 C 386.226562 1200.769531 383.40625 1203.699219 381.105469 1206.625 C 370.828125 1219.667969 359.613281 1231.6875 346.566406 1242.039062 C 344.109375 1243.972656 340.921875 1246.21875 340.214844 1248.910156 C 336.292969 1263.730469 323.117188 1272.304688 316.5 1285.265625 C 315.402344 1287.433594 313.339844 1289.1875 311.429688 1290.804688 C 308.449219 1293.367188 303.976562 1292.898438 301.078125 1290.101562 C 297.757812 1286.9375 295.402344 1283.121094 294.59375 1278.679688 C 293.234375 1271.179688 291.691406 1263.652344 291.375 1256.074219 C 290.121094 1226.199219 289.46875 1196.328125 290.722656 1166.429688 C 291.796875 1140.949219 296.839844 1115.988281 301.257812 1090.953125 C 305.808594 1065.207031 308.632812 1039.414062 307.324219 1013.226562 C 306.699219 1000.890625 303.296875 989.496094 297.519531 978.703125 C 294.199219 972.558594 291.035156 966.289062 287.351562 960.382812 C 277.914062 945.300781 274.277344 928.992188 274.957031 911.273438 C 275.558594 895.433594 277.597656 879.519531 274.09375 863.734375 C 273.234375 859.8125 274.460938 856.128906 276.03125 852.652344 C 277.597656 849.175781 279.273438 845.648438 281.519531 842.644531 C 291.21875 829.707031 288.5 817.839844 279.089844 806.183594 C 273.023438 798.683594 266.226562 792.046875 257.703125 787.472656 C 245.78125 781.070312 235.609375 772.652344 226.667969 762.539062 C 219.0625 753.941406 210.40625 746.441406 200.65625 740.296875 C 198.511719 738.9375 195.765625 737.945312 194.40625 736.039062 C 183.742188 721.011719 167.558594 710.921875 157.859375 695.003906 C 155.871094 691.765625 153.988281 688.316406 151.398438 685.597656 C 141.492188 675.246094 138.484375 662.546875 138.328125 648.824219 C 138.25 641.847656 138.539062 634.84375 138.695312 627.839844 C 138.878906 620 137.910156 612.574219 131.792969 606.800781 C 130.875 605.9375 130.300781 604.734375 129.4375 603.792969 C 115.398438 588.242188 106.902344 570.316406 104.914062 549.222656 C 103.292969 532.289062 94.195312 517.886719 86.039062 503.777344 C 79.398438 492.25 73.542969 480.304688 66.769531 468.859375 C 82.117188 445.285156 101.570312 425.1875 121.4375 405.585938 C 179.609375 348.296875 246.433594 304.078125 322.382812 273.789062 C 328.1875 271.488281 334.410156 269.996094 338.671875 264.535156 C 341.914062 260.378906 347.324219 259.414062 351.980469 257.453125 C 385.546875 243.390625 420.6875 234.976562 456.347656 228.574219 C 507.824219 219.375 559.800781 218.042969 611.957031 221.230469 C 619.566406 221.671875 627.199219 222.011719 634.441406 224.757812 Z M 634.441406 224.757812 " fill-opacity="1" fill-rule="nonzero"/><path fill="#64bc46" d="M 955.964844 357.628906 C 951.652344 364.660156 947.257812 371.636719 943.050781 378.746094 C 936.671875 389.488281 928.226562 397.980469 915.964844 401.378906 C 904.488281 404.566406 897.558594 411.441406 894.367188 422.886719 C 892.382812 430.023438 887.023438 435.40625 880.277344 437.472656 C 860.121094 443.640625 842.890625 455.921875 823.308594 463.449219 C 806.15625 470.035156 790.15625 470.007812 773.191406 465.015625 C 765.425781 462.71875 761.503906 457.882812 760.5625 450.226562 C 759.621094 442.566406 760.195312 434.960938 762.289062 427.566406 C 764.667969 419.230469 764.433594 411.363281 760.195312 403.625 C 755.777344 395.628906 754.523438 386.664062 754.496094 377.804688 C 754.472656 359.300781 750.339844 341.398438 747.832031 323.234375 C 744.195312 296.941406 734.707031 271.511719 736.40625 244.464844 C 755.832031 248.019531 774.078125 255.386719 792.355469 262.46875 C 845.296875 282.988281 894.683594 310.035156 940.253906 343.933594 C 945.847656 348.0625 952.042969 351.589844 955.964844 357.628906 Z M 955.964844 357.628906 " fill-opacity="1" fill-rule="nonzero"/><path fill="#0b301b" d="M 1242.847656 850.144531 C 1240.308594 1204.847656 957.324219 1485.929688 606.128906 1485.667969 C 247.480469 1485.40625 -31.269531 1196.617188 -30.25 848.3125 C -29.203125 495.203125 254.851562 213.050781 607.015625 213.703125 C 961.117188 214.382812 1241.199219 498.652344 1242.847656 850.144531 Z M 107.113281 488.171875 C 77.960938 515.796875 31.1875 609.230469 11.242188 679.820312 C -19.347656 788.125 -20.8125 896.953125 7.582031 1005.804688 C 35.816406 1113.976562 89.699219 1207.90625 168.863281 1287.015625 C 248.472656 1366.570312 343.117188 1420.4375 452.007812 1448.558594 C 560.949219 1476.703125 669.816406 1474.691406 777.972656 1443.671875 C 852.121094 1422.394531 947.207031 1373.574219 977.324219 1341.535156 C 971.757812 1335.785156 965.976562 1330.0625 960.460938 1324.101562 C 942.894531 1305.074219 943.335938 1282.859375 949.402344 1259.730469 C 949.558594 1259.128906 949.925781 1258.582031 950.265625 1258.03125 C 952.175781 1255.054688 955.285156 1253.25 958.292969 1254.738281 C 960.75 1255.941406 963.597656 1258.921875 963.886719 1261.378906 C 964.355469 1265.664062 962.816406 1270.105469 962.421875 1274.523438 C 961.296875 1286.832031 962.214844 1298.960938 970.5 1308.8125 C 977.351562 1316.96875 985.140625 1324.3125 993.875 1330.191406 C 996.332031 1328.675781 998.082031 1327.839844 999.546875 1326.664062 C 1004.488281 1322.640625 1009.402344 1318.613281 1014.164062 1314.378906 C 1128.542969 1211.929688 1196.964844 1084.886719 1219.082031 932.808594 C 1221.722656 914.722656 1215.789062 901.339844 1201.800781 891.542969 C 1193.09375 885.425781 1182.949219 881.164062 1173.121094 876.878906 C 1166.164062 873.847656 1158.558594 872.382812 1151.394531 869.824219 C 1132.675781 863.183594 1117.980469 851.554688 1108.910156 833.652344 C 1103.652344 823.300781 1096.855469 814.285156 1088.492188 806.289062 C 1085.796875 803.699219 1083.261719 800.589844 1081.746094 797.246094 C 1080.933594 795.417969 1081.613281 791.707031 1083.050781 790.371094 C 1085.09375 788.464844 1088.570312 786.871094 1091.183594 787.183594 C 1094.007812 787.523438 1096.832031 789.902344 1099.132812 791.992188 C 1109.066406 801.035156 1117.773438 811.070312 1123.628906 823.355469 C 1131.210938 839.21875 1144.019531 848.992188 1160.542969 854.21875 C 1164.179688 855.371094 1167.785156 856.625 1171.445312 857.671875 C 1187.550781 862.191406 1202.347656 869.222656 1215.210938 880.121094 C 1216.910156 881.558594 1219.265625 882.183594 1223.707031 884.378906 C 1224.546875 864.832031 1225.957031 847.476562 1223.394531 830.226562 C 1221.226562 828.765625 1219.839844 827.351562 1218.140625 826.726562 C 1202.246094 820.898438 1188.804688 811.175781 1177.511719 798.996094 C 1160.230469 780.390625 1143.839844 760.917969 1127.15625 741.734375 C 1125.117188 739.382812 1122.894531 736.585938 1122.375 733.683594 C 1121.875 731.019531 1122.636719 726.785156 1124.464844 725.402344 C 1126.375 723.964844 1131.078125 723.9375 1133.066406 725.375 C 1137.09375 728.277344 1140.097656 732.585938 1143.550781 736.300781 C 1159.105469 753.105469 1174.347656 770.171875 1190.324219 786.53125 C 1196.910156 793.273438 1204.988281 798.632812 1212.703125 804.222656 C 1214.847656 805.792969 1218.089844 805.816406 1222.480469 807.019531 C 1221.800781 796.488281 1221.667969 787.628906 1220.597656 778.871094 C 1216.492188 745.394531 1209.667969 712.464844 1201.171875 679.796875 C 1197.511719 665.734375 1190.164062 655.644531 1177.511719 649.398438 C 1167.289062 644.355469 1157.015625 639 1146.191406 635.730469 C 1134.113281 632.074219 1121.457031 629.878906 1108.910156 628.28125 C 1079.914062 624.570312 1053.273438 615.476562 1030.371094 596.765625 C 1026.449219 593.550781 1022.164062 590.726562 1017.925781 587.929688 C 1004.203125 578.914062 989.640625 577.371094 974.265625 583.277344 C 959.050781 589.132812 946.472656 598.488281 936.644531 611.53125 C 926.316406 625.25 915.9375 638.917969 905.636719 652.667969 C 895.648438 665.996094 884.488281 678.019531 870.003906 686.722656 C 866.5 688.835938 863.859375 692.390625 859.230469 696.808594 C 864.695312 698.457031 868.277344 700.753906 871.414062 700.257812 C 878.867188 699.109375 886.367188 697.277344 893.402344 694.585938 C 902.867188 690.953125 911.753906 685.804688 921.167969 682.042969 C 932.933594 677.339844 944.671875 671.851562 956.957031 669.496094 C 969.898438 667.015625 983.46875 667.511719 996.777344 667.378906 C 1002.972656 667.328125 1007.128906 672.007812 1006.683594 676.632812 C 1006.242188 681.363281 1002.214844 684.445312 995.546875 684.839844 C 991.757812 685.046875 987.914062 684.917969 984.097656 684.785156 C 965.21875 684.082031 947.574219 688.523438 930.761719 696.964844 C 921.664062 701.511719 912.589844 706.242188 903.128906 709.875 C 894.289062 713.273438 885.035156 715.730469 875.804688 717.875 C 867.414062 719.832031 859.285156 717.585938 851.9375 713.484375 C 841.503906 707.65625 838.316406 695.476562 845.191406 685.753906 C 848.773438 680.710938 853.664062 676.109375 858.945312 672.84375 C 872.800781 664.296875 883.414062 652.691406 892.957031 639.859375 C 902.449219 627.105469 911.964844 614.378906 921.613281 601.730469 C 931.808594 588.402344 944.148438 577.738281 959.417969 570.367188 C 984.515625 558.242188 1008.460938 559.183594 1031.417969 575.570312 C 1034.527344 577.789062 1037.71875 579.90625 1040.671875 582.3125 C 1061.039062 598.855469 1084.464844 607.324219 1110.398438 610.355469 C 1133.144531 613.019531 1155.679688 617.175781 1176.152344 628.519531 C 1177.5625 629.300781 1179.5 629.117188 1181.355469 629.433594 C 1178.871094 612.707031 1167.394531 586.964844 1156.542969 574.15625 C 1148.910156 574.757812 1140.699219 575.648438 1132.464844 575.988281 C 1127.445312 576.195312 1122.320312 575.988281 1117.355469 575.230469 C 1113.355469 574.628906 1110.398438 572.171875 1110.503906 567.519531 C 1110.582031 563.546875 1113.300781 560.75 1117.875 560.4375 C 1124.855469 559.941406 1131.890625 560.097656 1138.792969 559.207031 C 1142.085938 558.761719 1145.171875 556.542969 1148.335938 555.128906 C 1136.988281 529.441406 1109.875 488.25 1091.472656 468.441406 C 1084.910156 466.429688 1079.050781 468.832031 1073.144531 471.34375 C 1062.03125 476.074219 1051.078125 481.195312 1039.757812 485.375 C 1022.320312 491.832031 1024.359375 501.738281 1031.992188 513.574219 C 1035.234375 518.621094 1041.089844 522.304688 1046.398438 525.570312 C 1051.183594 528.550781 1057.089844 529.675781 1062.03125 532.472656 C 1066.894531 535.214844 1072.332031 538.222656 1075.445312 542.585938 C 1080.175781 549.222656 1083.390625 556.988281 1086.6875 564.539062 C 1088.28125 568.222656 1087.367188 572.171875 1083.417969 574.417969 C 1079.652344 576.5625 1075.730469 575.777344 1072.933594 572.929688 C 1070.320312 570.261719 1067.890625 566.96875 1066.609375 563.519531 C 1063 553.773438 1056.359375 548.101562 1046.476562 544.992188 C 1040.515625 543.132812 1034.894531 539.789062 1029.5625 536.390625 C 1021.875 531.503906 1016.28125 524.527344 1012.699219 516.136719 C 1001.980469 490.996094 1011.992188 477.273438 1030.921875 470.21875 C 1035.679688 468.441406 1040.4375 466.636719 1045.144531 464.730469 C 1055.679688 460.46875 1066.214844 456.15625 1077.589844 451.53125 C 1072.960938 442.800781 1066.269531 436.871094 1060.386719 430.363281 C 1054.425781 423.75 1048.175781 417.371094 1041.847656 411.125 C 1035.050781 404.410156 1028.253906 397.71875 1021.039062 391.5 C 1014.527344 385.878906 1009.117188 378.535156 1000.019531 375.453125 C 996.90625 378.769531 994.476562 381.671875 991.757812 384.261719 C 983 392.542969 974.1875 400.804688 965.246094 408.90625 C 962.917969 410.996094 960.121094 412.667969 957.351562 414.132812 C 953.925781 415.933594 948.015625 414.785156 947.285156 411.78125 C 946.605469 409.035156 946.816406 405.296875 948.253906 403.023438 C 950.1875 399.914062 953.769531 397.875 956.488281 395.210938 C 963.78125 388.128906 971.15625 381.125 978.109375 373.726562 C 980.984375 370.667969 982.867188 366.695312 986.292969 361.46875 C 983.625 359.691406 981.402344 358.414062 979.390625 356.871094 C 924.25 314.898438 863.625 283.378906 797.765625 261.894531 C 794.394531 260.796875 790.679688 260.796875 786.105469 260.117188 C 784.695312 275.199219 784.273438 289.128906 787.386719 302.847656 C 790.757812 317.695312 795.125 332.328125 798.734375 347.121094 C 801.738281 359.457031 804.433594 371.847656 806.890625 384.285156 C 807.882812 389.304688 807.359375 394.398438 804.039062 398.84375 C 800.796875 403.183594 793.296875 402.84375 791.152344 398.03125 C 790.394531 396.335938 789.714844 394.453125 789.636719 392.597656 C 788.851562 374.589844 783.335938 357.679688 778.132812 340.640625 C 770.078125 314.246094 765.554688 287.480469 769.453125 259.777344 C 769.6875 258.078125 768.71875 256.199219 768.117188 253.585938 C 739.777344 244.308594 710.367188 240.019531 681.660156 235.96875 C 671.304688 240.59375 663.4375 246.894531 657.136719 255.101562 C 651.722656 262.15625 645.839844 269.003906 641.398438 276.660156 C 627.90625 300 607.722656 307.789062 581.761719 304.757812 C 565.34375 302.824219 548.820312 301.648438 532.296875 300.96875 C 500.347656 299.660156 489.367188 306.457031 477.105469 341.503906 C 475.277344 346.730469 475.746094 352.792969 475.25 358.492188 C 474.988281 361.652344 475.589844 365.023438 474.648438 367.898438 C 473.96875 369.910156 471.328125 372.578125 469.523438 372.628906 C 466.832031 372.683594 462.386719 371.324219 461.679688 369.441406 C 459.71875 364.242188 458.203125 358.386719 458.515625 352.925781 C 459.746094 331.207031 468.214844 312.335938 483.117188 296.445312 C 488.976562 290.199219 496.296875 286.203125 504.765625 285.417969 C 515.484375 284.398438 526.308594 283.484375 537.054688 283.875 C 553.578125 284.476562 570.050781 286.148438 586.519531 287.585938 C 602.335938 288.972656 615.070312 284.660156 624.011719 270.414062 C 630.417969 260.222656 638.234375 250.894531 645.265625 241.09375 C 646.546875 239.316406 647.097656 237.015625 648.664062 233.410156 C 642.757812 232.703125 638.519531 231.894531 634.257812 231.710938 C 583.171875 229.539062 532.453125 233.277344 482.492188 243.808594 C 347.507812 272.269531 233.808594 337.894531 141.960938 441.023438 C 136.472656 447.191406 131.398438 453.753906 125.882812 459.894531 C 121.570312 464.675781 121.074219 469.746094 122.71875 475.785156 C 127.058594 491.832031 133.308594 507.070312 141.175781 521.679688 C 149.960938 537.984375 157.257812 554.84375 161.203125 573.007812 C 162.957031 581.082031 164.96875 589.082031 166.5625 597.183594 C 169.621094 612.679688 177.203125 625.617188 188.160156 636.777344 C 192.601562 641.324219 197.152344 645.765625 201.519531 650.394531 C 209.753906 659.121094 213.964844 669.445312 213.675781 681.519531 C 213.492188 688.523438 213.648438 695.527344 213.179688 702.507812 C 212.472656 712.75 217.125 719.703125 225.988281 723.832031 C 235.191406 728.117188 244.683594 731.777344 253.992188 735.800781 C 265.050781 740.585938 276.527344 744.609375 286.984375 750.515625 C 306.488281 761.492188 317.101562 778.769531 320.371094 801.0625 C 322.90625 818.363281 321.285156 835.457031 318.59375 852.339844 C 313.964844 881.324219 317.546875 909.445312 325.417969 937.171875 C 329.941406 953.035156 336.242188 968.40625 340.921875 984.214844 C 345.234375 998.800781 348.945312 1013.617188 352.003906 1028.515625 C 355.902344 1047.566406 352.164062 1066.515625 349.496094 1085.386719 C 348.816406 1090.21875 344.160156 1093.511719 340.109375 1093.09375 C 335.875 1092.652344 332.398438 1088.730469 332.371094 1083.738281 C 332.371094 1079.949219 332.683594 1076.105469 333.363281 1072.371094 C 337.941406 1046.679688 334.777344 1021.71875 326.539062 997.207031 C 321.285156 981.550781 315.480469 966.050781 310.566406 950.292969 C 300.605469 918.40625 295.613281 885.949219 300.632812 852.496094 C 301.675781 845.597656 302.175781 838.589844 303.167969 831.664062 C 304.605469 821.472656 303.847656 811.464844 302.175781 801.324219 C 299.480469 785.09375 291.140625 772.941406 276.894531 765.203125 C 268.578125 760.683594 259.53125 757.441406 250.800781 753.703125 C 239.714844 748.949219 228.421875 744.664062 217.546875 739.488281 C 201.492188 731.855469 194.015625 718.816406 195.085938 700.992188 C 195.191406 699.082031 195.007812 697.148438 195.347656 695.265625 C 198.5625 677.941406 193.101562 663.984375 179.242188 653.214844 C 178.25 652.433594 177.441406 651.414062 176.550781 650.523438 C 161.699219 635.785156 151.898438 618.351562 148.183594 597.601562 C 147.191406 591.980469 146.199219 586.285156 144.496094 580.847656 C 140.523438 568.144531 136.8125 555.289062 131.738281 543.003906 C 124.289062 524.867188 115.714844 507.148438 107.113281 488.171875 Z M 107.113281 488.171875 " fill-opacity="1" fill-rule="nonzero"/><path fill="#0b301b" d="M 631.148438 391.34375 C 622.859375 394.21875 615.671875 396.570312 608.613281 399.234375 C 594.3125 404.617188 579.589844 408.121094 564.585938 411.074219 C 552.269531 413.480469 540.375 418.390625 528.609375 422.992188 C 518.464844 426.964844 508.53125 430.519531 497.367188 430.207031 C 486.203125 429.867188 477.523438 425.710938 472.269531 415.882812 C 468.398438 408.644531 464.921875 401.117188 462.152344 393.40625 C 460.871094 389.851562 462.175781 385.828125 466.515625 383.972656 C 470.621094 382.222656 474.414062 383.265625 476.609375 386.664062 C 480.035156 391.96875 482.804688 397.691406 485.523438 403.390625 C 488.6875 410.003906 493.941406 413.035156 500.898438 412.042969 C 507.09375 411.152344 513.472656 409.871094 519.199219 407.390625 C 536.742188 399.730469 554.519531 393.617188 573.710938 391.054688 C 584.246094 389.644531 594.3125 384.859375 604.585938 381.59375 C 611.828125 379.292969 618.964844 376.417969 626.363281 374.773438 C 637.421875 372.289062 646.625 377.753906 650.597656 388.207031 C 651.042969 389.382812 651.539062 390.636719 651.621094 391.863281 C 652.664062 408.511719 661.660156 421.660156 670.234375 435.09375 C 673.972656 440.945312 677.582031 447.0625 680.222656 453.464844 C 684.429688 463.605469 682.417969 472.257812 673.632812 478.972656 C 666.625 484.332031 658.652344 488.539062 650.730469 492.457031 C 648.429688 493.609375 644.535156 492.695312 641.789062 491.621094 C 636.480469 489.503906 635.933594 482.554688 640.585938 479.367188 C 642.652344 477.953125 645.058594 477.066406 647.277344 475.863281 C 651.175781 473.746094 655.199219 471.785156 658.886719 469.355469 C 664.351562 465.773438 665.34375 461.90625 662.703125 456.417969 C 661.867188 454.695312 660.847656 453.074219 659.828125 451.480469 C 654.078125 442.332031 647.4375 433.628906 642.78125 423.984375 C 638.128906 414.394531 635.488281 403.859375 631.148438 391.34375 Z M 631.148438 391.34375 " fill-opacity="1" fill-rule="nonzero"/><g fill="#ffffff" fill-opacity="1"><g transform="translate(293.636231, 161.778243)"><g><path d="M 16.09375 -64.359375 L 16.09375 -37.1875 L 37.546875 -37.1875 L 37.546875 -64.359375 L 45.59375 -64.359375 L 45.59375 0 L 37.546875 0 L 37.546875 -29.859375 L 16.09375 -29.859375 L 16.09375 0 L 8.046875 0 L 8.046875 -64.359375 Z M 16.09375 -64.359375 "/></g></g></g><g fill="#ffffff" fill-opacity="1"><g transform="translate(347.270364, 161.778243)"><g><path d="M 26.8125 0.890625 C 20.675781 0.890625 15.863281 -0.773438 12.375 -4.109375 C 8.894531 -7.453125 7.15625 -12.039062 7.15625 -17.875 L 7.15625 -31.28125 C 7.15625 -37.125 8.894531 -41.710938 12.375 -45.046875 C 15.863281 -48.390625 20.675781 -50.0625 26.8125 -50.0625 C 32.957031 -50.0625 37.769531 -48.390625 41.25 -45.046875 C 44.738281 -41.710938 46.484375 -37.125 46.484375 -31.28125 L 46.484375 -22.265625 L 15.203125 -22.265625 L 15.203125 -18.328125 C 15.203125 -14.566406 16.226562 -11.613281 18.28125 -9.46875 C 20.332031 -7.320312 23.175781 -6.25 26.8125 -6.25 C 29.5 -6.25 31.820312 -6.664062 33.78125 -7.5 C 35.75 -8.34375 37.210938 -9.566406 38.171875 -11.171875 L 46.21875 -11.171875 C 45.195312 -7.421875 42.941406 -4.472656 39.453125 -2.328125 C 35.972656 -0.179688 31.757812 0.890625 26.8125 0.890625 Z M 38.4375 -28.96875 L 38.4375 -31.28125 C 38.4375 -34.976562 37.421875 -37.835938 35.390625 -39.859375 C 33.367188 -41.890625 30.507812 -42.90625 26.8125 -42.90625 C 23.125 -42.90625 20.265625 -41.890625 18.234375 -39.859375 C 16.210938 -37.835938 15.203125 -34.976562 15.203125 -31.28125 L 15.203125 -28.96875 Z M 38.4375 -28.96875 "/></g></g></g><g fill="#ffffff" fill-opacity="1"><g transform="translate(400.904498, 161.778243)"><g><path d="M 27.890625 -65.25 L 27.890625 -14.296875 C 27.890625 -12.097656 28.484375 -10.382812 29.671875 -9.15625 C 30.867188 -7.9375 32.507812 -7.328125 34.59375 -7.328125 L 49.171875 -7.328125 L 49.171875 0 L 34.59375 0 C 30.007812 0 26.40625 -1.265625 23.78125 -3.796875 C 21.15625 -6.328125 19.84375 -9.828125 19.84375 -14.296875 L 19.84375 -57.921875 L 3.578125 -57.921875 L 3.578125 -65.25 Z M 27.890625 -65.25 "/></g></g></g><g fill="#ffffff" fill-opacity="1"><g transform="translate(454.538622, 161.778243)"><g><path d="M 27.890625 -65.25 L 27.890625 -14.296875 C 27.890625 -12.097656 28.484375 -10.382812 29.671875 -9.15625 C 30.867188 -7.9375 32.507812 -7.328125 34.59375 -7.328125 L 49.171875 -7.328125 L 49.171875 0 L 34.59375 0 C 30.007812 0 26.40625 -1.265625 23.78125 -3.796875 C 21.15625 -6.328125 19.84375 -9.828125 19.84375 -14.296875 L 19.84375 -57.921875 L 3.578125 -57.921875 L 3.578125 -65.25 Z M 27.890625 -65.25 "/></g></g></g><g fill="#ffffff" fill-opacity="1"><g transform="translate(508.172764, 161.778243)"><g><path d="M 15.203125 -18.328125 C 15.203125 -14.566406 16.226562 -11.613281 18.28125 -9.46875 C 20.332031 -7.320312 23.175781 -6.25 26.8125 -6.25 C 30.394531 -6.25 33.226562 -7.320312 35.3125 -9.46875 C 37.394531 -11.613281 38.4375 -14.566406 38.4375 -18.328125 L 38.4375 -30.84375 C 38.4375 -34.59375 37.394531 -37.539062 35.3125 -39.6875 C 33.226562 -41.832031 30.394531 -42.90625 26.8125 -42.90625 C 23.238281 -42.90625 20.410156 -41.832031 18.328125 -39.6875 C 16.242188 -37.539062 15.203125 -34.59375 15.203125 -30.84375 Z M 7.15625 -30.84375 C 7.15625 -33.820312 7.613281 -36.488281 8.53125 -38.84375 C 9.457031 -41.195312 10.769531 -43.207031 12.46875 -44.875 C 14.164062 -46.539062 16.222656 -47.820312 18.640625 -48.71875 C 21.054688 -49.613281 23.78125 -50.0625 26.8125 -50.0625 C 32.894531 -50.0625 37.691406 -48.363281 41.203125 -44.96875 C 44.722656 -41.570312 46.484375 -36.890625 46.484375 -30.921875 L 46.484375 -18.328125 C 46.484375 -15.347656 46.035156 -12.664062 45.140625 -10.28125 C 44.242188 -7.894531 42.945312 -5.878906 41.25 -4.234375 C 39.550781 -2.597656 37.476562 -1.332031 35.03125 -0.4375 C 32.59375 0.445312 29.851562 0.890625 26.8125 0.890625 C 23.78125 0.890625 21.054688 0.445312 18.640625 -0.4375 C 16.222656 -1.332031 14.164062 -2.613281 12.46875 -4.28125 C 10.769531 -5.957031 9.457031 -7.984375 8.53125 -10.359375 C 7.613281 -12.742188 7.15625 -15.398438 7.15625 -18.328125 Z M 7.15625 -30.84375 "/></g></g></g><g fill="#ffffff" fill-opacity="1"><g transform="translate(561.806905, 161.778243)"><g/></g></g><g fill="#ffffff" fill-opacity="1"><g transform="translate(615.441047, 161.778243)"><g><path d="M 2.6875 -49.171875 L 9.390625 -49.171875 L 13.671875 -15.46875 C 13.796875 -14.570312 13.914062 -13.5 14.03125 -12.25 C 14.15625 -11 14.273438 -9.773438 14.390625 -8.578125 C 14.566406 -7.148438 14.71875 -5.722656 14.84375 -4.296875 L 15.734375 -4.296875 C 15.910156 -5.785156 16.085938 -7.210938 16.265625 -8.578125 C 16.441406 -9.773438 16.617188 -11.015625 16.796875 -12.296875 C 16.984375 -13.578125 17.132812 -14.632812 17.25 -15.46875 L 22.34375 -49.171875 L 31.203125 -49.171875 L 36.203125 -15.46875 C 36.316406 -14.570312 36.460938 -13.484375 36.640625 -12.203125 C 36.828125 -10.921875 37.007812 -9.679688 37.1875 -8.484375 C 37.363281 -7.117188 37.539062 -5.722656 37.71875 -4.296875 L 38.703125 -4.296875 C 38.878906 -5.722656 39.0625 -7.148438 39.25 -8.578125 C 39.363281 -9.773438 39.492188 -11 39.640625 -12.25 C 39.796875 -13.5 39.929688 -14.570312 40.046875 -15.46875 L 44.421875 -49.171875 L 50.953125 -49.171875 L 43.984375 0 L 33.078125 0 L 27.890625 -34.765625 C 27.773438 -35.785156 27.671875 -36.84375 27.578125 -37.9375 C 27.484375 -39.039062 27.410156 -40.070312 27.359375 -41.03125 C 27.296875 -42.101562 27.265625 -43.175781 27.265625 -44.25 L 26.375 -44.25 C 26.3125 -43.175781 26.25 -42.101562 26.1875 -41.03125 C 26.132812 -40.070312 26.0625 -39.039062 25.96875 -37.9375 C 25.875 -36.84375 25.738281 -35.785156 25.5625 -34.765625 L 20.203125 0 L 9.5625 0 Z M 2.6875 -49.171875 "/></g></g></g><g fill="#ffffff" fill-opacity="1"><g transform="translate(669.075189, 161.778243)"><g><path d="M 15.203125 -18.328125 C 15.203125 -14.566406 16.226562 -11.613281 18.28125 -9.46875 C 20.332031 -7.320312 23.175781 -6.25 26.8125 -6.25 C 30.394531 -6.25 33.226562 -7.320312 35.3125 -9.46875 C 37.394531 -11.613281 38.4375 -14.566406 38.4375 -18.328125 L 38.4375 -30.84375 C 38.4375 -34.59375 37.394531 -37.539062 35.3125 -39.6875 C 33.226562 -41.832031 30.394531 -42.90625 26.8125 -42.90625 C 23.238281 -42.90625 20.410156 -41.832031 18.328125 -39.6875 C 16.242188 -37.539062 15.203125 -34.59375 15.203125 -30.84375 Z M 7.15625 -30.84375 C 7.15625 -33.820312 7.613281 -36.488281 8.53125 -38.84375 C 9.457031 -41.195312 10.769531 -43.207031 12.46875 -44.875 C 14.164062 -46.539062 16.222656 -47.820312 18.640625 -48.71875 C 21.054688 -49.613281 23.78125 -50.0625 26.8125 -50.0625 C 32.894531 -50.0625 37.691406 -48.363281 41.203125 -44.96875 C 44.722656 -41.570312 46.484375 -36.890625 46.484375 -30.921875 L 46.484375 -18.328125 C 46.484375 -15.347656 46.035156 -12.664062 45.140625 -10.28125 C 44.242188 -7.894531 42.945312 -5.878906 41.25 -4.234375 C 39.550781 -2.597656 37.476562 -1.332031 35.03125 -0.4375 C 32.59375 0.445312 29.851562 0.890625 26.8125 0.890625 C 23.78125 0.890625 21.054688 0.445312 18.640625 -0.4375 C 16.222656 -1.332031 14.164062 -2.613281 12.46875 -4.28125 C 10.769531 -5.957031 9.457031 -7.984375 8.53125 -10.359375 C 7.613281 -12.742188 7.15625 -15.398438 7.15625 -18.328125 Z M 7.15625 -30.84375 "/></g></g></g><g fill="#ffffff" fill-opacity="1"><g transform="translate(722.70933, 161.778243)"><g><path d="M 10.015625 -49.171875 L 17.609375 -49.171875 L 17.609375 -40.671875 L 18.328125 -40.671875 C 19.097656 -43.585938 20.703125 -45.878906 23.140625 -47.546875 C 25.585938 -49.222656 28.601562 -50.0625 32.1875 -50.0625 C 37.363281 -50.0625 41.425781 -48.4375 44.375 -45.1875 C 47.332031 -41.9375 48.8125 -37.484375 48.8125 -31.828125 L 48.8125 -29.046875 L 40.765625 -29.046875 L 40.765625 -30.84375 C 40.765625 -34.71875 39.796875 -37.710938 37.859375 -39.828125 C 35.921875 -41.941406 33.164062 -43 29.59375 -43 C 26.070312 -43 23.269531 -41.910156 21.1875 -39.734375 C 19.101562 -37.554688 18.0625 -34.59375 18.0625 -30.84375 L 18.0625 0 L 10.015625 0 Z M 10.015625 -49.171875 "/></g></g></g><g fill="#ffffff" fill-opacity="1"><g transform="translate(776.343472, 161.778243)"><g><path d="M 27.890625 -65.25 L 27.890625 -14.296875 C 27.890625 -12.097656 28.484375 -10.382812 29.671875 -9.15625 C 30.867188 -7.9375 32.507812 -7.328125 34.59375 -7.328125 L 49.171875 -7.328125 L 49.171875 0 L 34.59375 0 C 30.007812 0 26.40625 -1.265625 23.78125 -3.796875 C 21.15625 -6.328125 19.84375 -9.828125 19.84375 -14.296875 L 19.84375 -57.921875 L 3.578125 -57.921875 L 3.578125 -65.25 Z M 27.890625 -65.25 "/></g></g></g><g fill="#ffffff" fill-opacity="1"><g transform="translate(829.977613, 161.778243)"><g><path d="M 7.15625 -30.84375 C 7.15625 -33.820312 7.554688 -36.5 8.359375 -38.875 C 9.160156 -41.257812 10.273438 -43.269531 11.703125 -44.90625 C 13.140625 -46.550781 14.867188 -47.820312 16.890625 -48.71875 C 18.921875 -49.613281 21.1875 -50.0625 23.6875 -50.0625 C 27.320312 -50.0625 30.332031 -49.238281 32.71875 -47.59375 C 35.101562 -45.957031 36.679688 -43.648438 37.453125 -40.671875 L 38.171875 -40.671875 C 38.109375 -41.679688 38.046875 -42.695312 37.984375 -43.71875 C 37.867188 -44.601562 37.796875 -45.535156 37.765625 -46.515625 C 37.734375 -47.503906 37.71875 -48.390625 37.71875 -49.171875 L 37.71875 -65.25 L 45.765625 -65.25 L 45.765625 0 L 38.171875 0 L 38.171875 -8.484375 L 37.453125 -8.484375 C 36.679688 -5.503906 35.101562 -3.195312 32.71875 -1.5625 C 30.332031 0.0703125 27.320312 0.890625 23.6875 0.890625 C 21.1875 0.890625 18.921875 0.445312 16.890625 -0.4375 C 14.867188 -1.332031 13.140625 -2.597656 11.703125 -4.234375 C 10.273438 -5.878906 9.160156 -7.894531 8.359375 -10.28125 C 7.554688 -12.664062 7.15625 -15.347656 7.15625 -18.328125 Z M 26.734375 -6.078125 C 30.066406 -6.078125 32.726562 -7.175781 34.71875 -9.375 C 36.71875 -11.582031 37.71875 -14.566406 37.71875 -18.328125 L 37.71875 -30.84375 C 37.71875 -34.59375 36.71875 -37.570312 34.71875 -39.78125 C 32.726562 -41.988281 30.066406 -43.09375 26.734375 -43.09375 C 23.097656 -43.09375 20.265625 -42.019531 18.234375 -39.875 C 16.210938 -37.726562 15.203125 -34.71875 15.203125 -30.84375 L 15.203125 -18.328125 C 15.203125 -14.566406 16.226562 -11.582031 18.28125 -9.375 C 20.332031 -7.175781 23.148438 -6.078125 26.734375 -6.078125 Z M 26.734375 -6.078125 "/></g></g></g></svg>